<svg width="377" height="354" viewBox="0 0 377 354" fill="none" xmlns="http://www.w3.org/2000/svg">
<path d="M68.1231 261.462H127.836V193.254H43.3129C43.3129 193.254 40.3693 216.96 40.3693 225.278C39.1078 261.046 68.1231 261.462 68.1231 261.462" fill="#68963B"/>
<path d="M81.9998 164.556L109.333 180.36L73.169 117.143L0 117.559L27.3333 133.363L5.46665 170.795C3.36409 174.538 0.841023 180.776 4.20512 186.183L41.6307 249.816C48.3588 261.461 60.1332 261.046 68.5434 261.046C68.5434 261.046 30.2768 253.143 54.6665 211.553L81.9998 164.556Z" fill="#83BF4F"/>
<path d="M75.6924 36.8738L45.8361 88.0299L105.549 122.134L147.6 49.7668C147.6 49.7668 128.256 35.2102 121.108 31.0512C90.8308 12.7514 75.6924 36.8738 75.6924 36.8738Z" fill="#68963B"/>
<path d="M153.907 97.5957L126.574 113.4L199.743 114.232L235.907 51.0145L208.574 66.8188L186.707 29.3875C184.184 24.8126 179.979 19.8217 173.671 19.8217H99.2409C85.7845 19.8217 79.8974 29.8034 75.6923 36.8738C75.6923 36.8738 101.764 8.17643 126.154 49.7668L153.907 97.5957Z" fill="#83BF4F"/>
<path d="M157.629 221.338C157.629 224.639 159.195 226.289 162.326 226.289H176.799C179.761 226.289 181.792 225.739 182.893 224.639C183.993 223.538 184.839 221.169 185.432 217.529C185.855 214.821 187.801 213.636 191.271 213.975C194.826 214.229 196.604 215.583 196.604 218.037L195.715 237.715H141.633V159.893C141.633 157.184 141.421 155.449 140.998 154.688C140.66 153.841 140.194 153.333 139.602 153.164C137.993 152.741 136.597 152.233 135.412 151.641C134.227 151.048 133.635 149.948 133.635 148.34C133.635 145.632 135.412 144.277 138.967 144.277H152.424C155.894 144.277 157.629 145.632 157.629 148.34V221.338ZM195.08 204.199C195.08 194.043 197.704 185.749 202.951 179.316C208.283 172.799 215.985 169.541 226.057 169.541C236.213 169.541 243.957 172.799 249.289 179.316C254.621 185.749 257.287 194.043 257.287 204.199C257.287 214.271 254.621 222.523 249.289 228.955C243.957 235.387 236.213 238.604 226.057 238.604C215.985 238.604 208.283 235.387 202.951 228.955C197.704 222.523 195.08 214.271 195.08 204.199ZM211.711 204.199C211.711 212.493 213.192 218.587 216.154 222.48C219.117 226.289 222.417 228.193 226.057 228.193C229.781 228.193 233.124 226.289 236.086 222.48C239.133 218.587 240.656 212.493 240.656 204.199C240.656 195.82 239.133 189.684 236.086 185.791C233.124 181.898 229.781 179.951 226.057 179.951C222.417 179.951 219.117 181.898 216.154 185.791C213.192 189.684 211.711 195.82 211.711 204.199ZM260.08 204.199C260.08 194.043 262.704 185.749 267.951 179.316C273.283 172.799 280.985 169.541 291.057 169.541C301.213 169.541 308.957 172.799 314.289 179.316C319.621 185.749 322.287 194.043 322.287 204.199C322.287 214.271 319.621 222.523 314.289 228.955C308.957 235.387 301.213 238.604 291.057 238.604C280.985 238.604 273.283 235.387 267.951 228.955C262.704 222.523 260.08 214.271 260.08 204.199ZM276.711 204.199C276.711 212.493 278.192 218.587 281.154 222.48C284.117 226.289 287.417 228.193 291.057 228.193C294.781 228.193 298.124 226.289 301.086 222.48C304.133 218.587 305.656 212.493 305.656 204.199C305.656 195.82 304.133 189.684 301.086 185.791C298.124 181.898 294.781 179.951 291.057 179.951C287.417 179.951 284.117 181.898 281.154 185.791C278.192 189.684 276.711 195.82 276.711 204.199ZM347.043 207.881C340.865 205.765 335.871 203.099 332.062 199.883C328.339 196.582 326.477 192.604 326.477 187.949C326.477 182.279 328.508 177.751 332.57 174.365C336.633 170.895 342.642 169.033 350.598 168.779C354.068 168.61 357.495 168.906 360.881 169.668C364.351 170.345 367.736 171.488 371.037 173.096V188.457C366.128 184.225 362.15 181.644 359.104 180.713C356.141 179.697 353.475 179.232 351.105 179.316C348.312 179.316 346.07 179.909 344.377 181.094C342.769 182.279 341.88 184.098 341.711 186.553C341.626 188.669 342.811 190.615 345.266 192.393C347.805 194.085 351.359 195.82 355.93 197.598C362.785 200.137 367.694 203.014 370.656 206.23C373.703 209.447 375.227 213.213 375.227 217.529C375.227 224.046 372.857 229.209 368.117 233.018C363.462 236.742 356.903 238.604 348.439 238.604C344.292 238.604 340.399 238.053 336.76 236.953C333.205 235.768 330.539 234.372 328.762 232.764C326.9 231.156 325.926 229.717 325.842 228.447C325.757 227.093 326.011 225.951 326.604 225.02C327.873 223.242 329.481 222.311 331.428 222.227C333.374 222.057 335.194 222.734 336.887 224.258C338.41 225.358 340.272 226.289 342.473 227.051C344.673 227.728 346.662 228.066 348.439 228.066C352.587 227.897 355.591 226.797 357.453 224.766C359.4 222.734 360.119 220.238 359.611 217.275C359.442 215.837 358.511 214.313 356.818 212.705C355.126 211.097 351.867 209.489 347.043 207.881Z" fill="black"/>
<path d="M30.7188 289.422H26.8125C24.6771 289.422 23.6094 290.438 23.6094 292.469V340.594H14.2344V292.625C14.2344 290.958 14.0521 289.865 13.6875 289.344C13.375 288.823 13.1146 288.536 12.9062 288.484C11.7083 288.12 10.849 287.729 10.3281 287.312C9.85938 286.896 9.625 286.271 9.625 285.438C9.625 283.823 10.4062 283.016 11.9688 283.016H30.7969C36.9948 283.016 41.8125 284.5 45.25 287.469C48.6875 290.438 50.4062 294.344 50.4062 299.188C50.4062 304.396 48.7917 308.484 45.5625 311.453C42.3333 314.422 38.8958 315.958 35.25 316.062L51.0312 340.594H39.5469L24.7031 315.281C23.9219 313.979 23.7656 312.755 24.2344 311.609C24.7552 310.411 25.6146 309.812 26.8125 309.812H28.4531C32.099 309.812 34.9896 308.927 37.125 307.156C39.2604 305.385 40.3281 302.703 40.3281 299.109C40.3802 296.036 39.3906 293.667 37.3594 292C35.3281 290.281 33.1146 289.422 30.7188 289.422ZM61.1094 321.922C61.3177 325.047 62.4635 327.911 64.5469 330.516C66.6302 333.068 69.3385 334.474 72.6719 334.734C73.8177 334.839 75.0417 334.812 76.3438 334.656C77.6458 334.448 78.9219 334.031 80.1719 333.406C81.7344 332.677 82.9062 332.469 83.6875 332.781C84.5208 333.042 85.1458 333.589 85.5625 334.422C85.7708 335.099 85.7448 335.828 85.4844 336.609C85.276 337.339 84.8073 337.938 84.0781 338.406C82.6719 339.24 80.7708 339.943 78.375 340.516C76.0312 341.089 73.401 341.297 70.4844 341.141C65.0156 340.776 60.4062 338.641 56.6562 334.734C52.9062 330.828 51.0312 325.438 51.0312 318.562C51.0312 312.417 52.724 307.573 56.1094 304.031C59.4948 300.438 64.1042 298.641 69.9375 298.641C74.9375 298.641 79 300.281 82.125 303.562C85.25 306.844 86.8125 311.844 86.8125 318.562V321.922H61.1094ZM61.1094 315.359H77.0469C77.0469 311.87 76.2656 309.292 74.7031 307.625C73.1927 305.906 71.526 305.047 69.7031 305.047C67.6198 305.047 65.6927 306.01 63.9219 307.938C62.2031 309.865 61.2656 312.339 61.1094 315.359ZM121.891 338.172C120.641 339.109 118.844 339.891 116.5 340.516C114.208 341.089 111.448 341.297 108.219 341.141C102.75 340.828 98.1406 338.719 94.3906 334.812C90.6406 330.854 88.7656 325.438 88.7656 318.562C88.7656 312.521 90.4583 307.703 93.8438 304.109C97.2292 300.464 101.891 298.641 107.828 298.641C112.62 298.641 116.448 299.812 119.312 302.156C122.229 304.448 123.792 307.547 124 311.453H114.078C114.078 309.161 113.479 307.521 112.281 306.531C111.083 305.542 109.469 305.047 107.438 305.047C105.354 305.047 103.401 306.219 101.578 308.562C99.7552 310.854 98.8438 314.188 98.8438 318.562C98.8438 323.354 99.9375 327.182 102.125 330.047C104.312 332.911 107.073 334.474 110.406 334.734C111.552 334.839 112.776 334.812 114.078 334.656C115.38 334.448 116.682 334.031 117.984 333.406C119.339 332.729 120.432 332.495 121.266 332.703C122.151 332.911 122.802 333.38 123.219 334.109C123.479 334.839 123.479 335.594 123.219 336.375C123.01 337.104 122.568 337.703 121.891 338.172ZM139.781 340.594H130.016V309.266C130.016 307.651 129.885 306.557 129.625 305.984C129.365 305.411 129.078 305.047 128.766 304.891C127.828 304.63 127.125 304.318 126.656 303.953C126.188 303.589 125.953 303.042 125.953 302.312C125.953 300.542 127.073 299.656 129.312 299.656H136.422C138.661 299.656 139.781 300.594 139.781 302.469V340.594ZM140.094 287.547C140.094 289.214 139.495 290.646 138.297 291.844C137.151 292.99 135.745 293.562 134.078 293.562C132.411 293.562 131.005 292.99 129.859 291.844C128.714 290.646 128.141 289.214 128.141 287.547C128.141 285.88 128.714 284.448 129.859 283.25C131.005 282 132.411 281.375 134.078 281.375C135.745 281.375 137.151 282 138.297 283.25C139.495 284.448 140.094 285.88 140.094 287.547ZM177.594 338.172C176.344 339.109 174.547 339.891 172.203 340.516C169.911 341.089 167.151 341.297 163.922 341.141C158.453 340.828 153.844 338.719 150.094 334.812C146.344 330.854 144.469 325.438 144.469 318.562C144.469 312.521 146.161 307.703 149.547 304.109C152.932 300.464 157.594 298.641 163.531 298.641C168.323 298.641 172.151 299.812 175.016 302.156C177.932 304.448 179.495 307.547 179.703 311.453H169.781C169.781 309.161 169.182 307.521 167.984 306.531C166.786 305.542 165.172 305.047 163.141 305.047C161.057 305.047 159.104 306.219 157.281 308.562C155.458 310.854 154.547 314.188 154.547 318.562C154.547 323.354 155.641 327.182 157.828 330.047C160.016 332.911 162.776 334.474 166.109 334.734C167.255 334.839 168.479 334.812 169.781 334.656C171.083 334.448 172.385 334.031 173.688 333.406C175.042 332.729 176.135 332.495 176.969 332.703C177.854 332.911 178.505 333.38 178.922 334.109C179.182 334.839 179.182 335.594 178.922 336.375C178.714 337.104 178.271 337.703 177.594 338.172ZM195.484 340.594H185.719V290.828C185.719 289.214 185.589 288.146 185.328 287.625C185.12 287.052 184.807 286.688 184.391 286.531C183.557 286.219 182.88 285.906 182.359 285.594C181.891 285.229 181.656 284.578 181.656 283.641C181.656 282.026 182.776 281.219 185.016 281.219H192.125C194.365 281.219 195.484 282.078 195.484 283.797V340.594ZM224.781 337.859C224.104 338.38 222.906 339.057 221.188 339.891C219.469 340.724 217.047 341.141 213.922 341.141C210.224 341.141 207.177 340.073 204.781 337.938C202.385 335.75 201.188 332.964 201.188 329.578C201.188 324.995 203.219 321.323 207.281 318.562C211.396 315.802 216.37 314.422 222.203 314.422H224.703V312.781C224.703 310.385 224.026 308.51 222.672 307.156C221.318 305.75 219.703 305.047 217.828 305.047C216.161 305.047 214.729 305.49 213.531 306.375C212.385 307.26 211.812 308.979 211.812 311.531H201.656C201.656 307.417 203.141 304.24 206.109 302C209.078 299.76 213.062 298.641 218.062 298.641C223.375 298.641 227.411 299.969 230.172 302.625C232.984 305.229 234.391 308.745 234.391 313.172V340.594H224.781V337.859ZM224.703 321.062C220.484 320.958 217.125 321.609 214.625 323.016C212.125 324.422 210.875 326.349 210.875 328.797C210.875 330.88 211.37 332.312 212.359 333.094C213.349 333.823 214.469 334.188 215.719 334.188C217.906 334.188 219.938 333.38 221.812 331.766C223.74 330.151 224.703 328.198 224.703 325.906V321.062ZM247.594 320.281C247.594 324.396 248.427 327.521 250.094 329.656C251.812 331.74 253.609 332.781 255.484 332.781C257.724 332.781 259.599 331.87 261.109 330.047C262.62 328.172 263.375 325.203 263.375 321.141V316.141C263.375 312.651 262.568 309.995 260.953 308.172C259.391 306.349 257.516 305.438 255.328 305.438C253.349 305.438 251.552 306.583 249.938 308.875C248.375 311.167 247.594 314.969 247.594 320.281ZM263.453 336.688C261.318 338.406 258.609 339.266 255.328 339.266C249.651 339.266 245.328 337.365 242.359 333.562C239.391 329.76 237.906 325.281 237.906 320.125C237.906 313.667 239.391 308.484 242.359 304.578C245.328 300.62 249.417 298.641 254.625 298.641C258.427 298.641 261.448 299.682 263.688 301.766C264.26 300.359 265.615 299.656 267.75 299.656H273.531C275.823 299.656 276.969 300.49 276.969 302.156C276.969 303.042 276.526 303.641 275.641 303.953C274.807 304.266 274.104 304.5 273.531 304.656C273.479 304.708 273.375 304.917 273.219 305.281C273.115 305.594 273.062 306.766 273.062 308.797V338.172C273.062 342.964 271.656 346.792 268.844 349.656C266.031 352.521 261.63 353.953 255.641 353.953C249.911 353.953 245.849 352.859 243.453 350.672C241.057 348.536 239.781 345.49 239.625 341.531H249.312C249.417 343.771 250.016 345.359 251.109 346.297C252.203 347.234 253.844 347.703 256.031 347.703C258.062 347.703 259.807 346.948 261.266 345.438C262.724 343.927 263.453 341.505 263.453 338.172V336.688ZM287.984 321.922C288.193 325.047 289.339 327.911 291.422 330.516C293.505 333.068 296.214 334.474 299.547 334.734C300.693 334.839 301.917 334.812 303.219 334.656C304.521 334.448 305.797 334.031 307.047 333.406C308.609 332.677 309.781 332.469 310.562 332.781C311.396 333.042 312.021 333.589 312.438 334.422C312.646 335.099 312.62 335.828 312.359 336.609C312.151 337.339 311.682 337.938 310.953 338.406C309.547 339.24 307.646 339.943 305.25 340.516C302.906 341.089 300.276 341.297 297.359 341.141C291.891 340.776 287.281 338.641 283.531 334.734C279.781 330.828 277.906 325.438 277.906 318.562C277.906 312.417 279.599 307.573 282.984 304.031C286.37 300.438 290.979 298.641 296.812 298.641C301.812 298.641 305.875 300.281 309 303.562C312.125 306.844 313.688 311.844 313.688 318.562V321.922H287.984ZM287.984 315.359H303.922C303.922 311.87 303.141 309.292 301.578 307.625C300.068 305.906 298.401 305.047 296.578 305.047C294.495 305.047 292.568 306.01 290.797 307.938C289.078 309.865 288.141 312.339 287.984 315.359ZM328.141 340.594H318.531V309.266C318.531 307.651 318.401 306.557 318.141 305.984C317.88 305.411 317.594 305.047 317.281 304.891C316.292 304.682 315.589 304.396 315.172 304.031C314.755 303.667 314.547 303.042 314.547 302.156C314.547 300.49 315.641 299.656 317.828 299.656H324.781C327.021 299.656 328.141 300.594 328.141 302.469V303.094C328.349 302.885 328.557 302.651 328.766 302.391C330.797 300.255 333.557 299.135 337.047 299.031C340.901 299.031 343.766 300.333 345.641 302.938C346.109 303.562 346.526 304.292 346.891 305.125C347.359 304.292 347.932 303.51 348.609 302.781C350.901 300.281 353.766 299.031 357.203 299.031C361.161 299.031 364.052 300.359 365.875 303.016C367.75 305.62 368.688 309.76 368.688 315.438V340.594H359.078V315.672C359.078 312.078 358.74 309.604 358.062 308.25C357.438 306.896 356.552 306.219 355.406 306.219C353.896 306.219 352.125 307.651 350.094 310.516C349.365 311.453 348.818 312.521 348.453 313.719V340.594H338.844V315.672C338.844 312.026 338.505 309.552 337.828 308.25C337.203 306.896 336.37 306.219 335.328 306.219C333.818 306.271 331.995 307.703 329.859 310.516C329.13 311.401 328.557 312.443 328.141 313.641V340.594Z" fill="#83BF4F"/>
</svg>
