<svg width="507" height="286" viewBox="0 0 507 286" fill="none" xmlns="http://www.w3.org/2000/svg">
<path d="M68.1231 261.462H127.836V193.254H43.3129C43.3129 193.254 40.3693 216.96 40.3693 225.278C39.1078 261.046 68.1231 261.462 68.1231 261.462Z" fill="#68963B"/>
<path d="M81.9998 164.556L109.333 180.36L73.169 117.143L0 117.559L27.3333 133.363L5.46665 170.795C3.36409 174.538 0.841023 180.776 4.20512 186.183L41.6307 249.816C48.3588 261.461 60.1332 261.046 68.5434 261.046C68.5434 261.046 30.2768 253.143 54.6665 211.553L81.9998 164.556Z" fill="#83BF4F"/>
<path d="M75.6924 36.8738L45.8361 88.0299L105.549 122.134L147.6 49.7668C147.6 49.7668 128.256 35.2102 121.108 31.0511C90.8308 12.7514 75.6924 36.8738 75.6924 36.8738Z" fill="#68963B"/>
<path d="M153.907 97.5957L126.574 113.4L199.743 114.232L235.907 51.0145L208.574 66.8188L186.707 29.3875C184.184 24.8126 179.979 19.8217 173.671 19.8217H99.2409C85.7845 19.8217 79.8974 29.8034 75.6923 36.8738C75.6923 36.8738 101.764 8.17642 126.154 49.7668L153.907 97.5957Z" fill="#83BF4F"/>
<path d="M155.945 182.645C155.945 185.184 157.15 186.453 159.559 186.453H170.691C172.97 186.453 174.533 186.03 175.379 185.184C176.225 184.337 176.876 182.514 177.332 179.715C177.658 177.632 179.155 176.72 181.824 176.98C184.559 177.176 185.926 178.217 185.926 180.105L185.242 195.242H143.641V135.379C143.641 133.296 143.478 131.961 143.152 131.375C142.892 130.724 142.534 130.333 142.078 130.203C140.841 129.878 139.767 129.487 138.855 129.031C137.944 128.576 137.488 127.729 137.488 126.492C137.488 124.409 138.855 123.367 141.59 123.367H151.941C154.611 123.367 155.945 124.409 155.945 126.492V182.645ZM184.754 169.461C184.754 161.648 186.772 155.268 190.809 150.32C194.91 145.307 200.835 142.801 208.582 142.801C216.395 142.801 222.352 145.307 226.453 150.32C230.555 155.268 232.605 161.648 232.605 169.461C232.605 177.208 230.555 183.556 226.453 188.504C222.352 193.452 216.395 195.926 208.582 195.926C200.835 195.926 194.91 193.452 190.809 188.504C186.772 183.556 184.754 177.208 184.754 169.461ZM197.547 169.461C197.547 175.841 198.686 180.529 200.965 183.523C203.243 186.453 205.783 187.918 208.582 187.918C211.447 187.918 214.018 186.453 216.297 183.523C218.641 180.529 219.812 175.841 219.812 169.461C219.812 163.016 218.641 158.296 216.297 155.301C214.018 152.306 211.447 150.809 208.582 150.809C205.783 150.809 203.243 152.306 200.965 155.301C198.686 158.296 197.547 163.016 197.547 169.461ZM234.754 169.461C234.754 161.648 236.772 155.268 240.809 150.32C244.91 145.307 250.835 142.801 258.582 142.801C266.395 142.801 272.352 145.307 276.453 150.32C280.555 155.268 282.605 161.648 282.605 169.461C282.605 177.208 280.555 183.556 276.453 188.504C272.352 193.452 266.395 195.926 258.582 195.926C250.835 195.926 244.91 193.452 240.809 188.504C236.772 183.556 234.754 177.208 234.754 169.461ZM247.547 169.461C247.547 175.841 248.686 180.529 250.965 183.523C253.243 186.453 255.783 187.918 258.582 187.918C261.447 187.918 264.018 186.453 266.297 183.523C268.641 180.529 269.812 175.841 269.812 169.461C269.812 163.016 268.641 158.296 266.297 155.301C264.018 152.306 261.447 150.809 258.582 150.809C255.783 150.809 253.243 152.306 250.965 155.301C248.686 158.296 247.547 163.016 247.547 169.461ZM301.648 172.293C296.896 170.665 293.055 168.615 290.125 166.141C287.26 163.602 285.828 160.542 285.828 156.961C285.828 152.599 287.391 149.116 290.516 146.512C293.641 143.842 298.263 142.41 304.383 142.215C307.052 142.085 309.689 142.312 312.293 142.898C314.962 143.419 317.566 144.298 320.105 145.535V157.352C316.329 154.096 313.27 152.111 310.926 151.395C308.647 150.613 306.596 150.255 304.773 150.32C302.625 150.32 300.9 150.776 299.598 151.688C298.361 152.599 297.677 153.999 297.547 155.887C297.482 157.514 298.393 159.012 300.281 160.379C302.234 161.681 304.969 163.016 308.484 164.383C313.758 166.336 317.534 168.549 319.812 171.023C322.156 173.497 323.328 176.395 323.328 179.715C323.328 184.728 321.505 188.699 317.859 191.629C314.279 194.493 309.233 195.926 302.723 195.926C299.533 195.926 296.538 195.503 293.738 194.656C291.004 193.745 288.953 192.671 287.586 191.434C286.154 190.197 285.405 189.09 285.34 188.113C285.275 187.072 285.47 186.193 285.926 185.477C286.902 184.109 288.139 183.393 289.637 183.328C291.134 183.198 292.534 183.719 293.836 184.891C295.008 185.737 296.44 186.453 298.133 187.039C299.826 187.56 301.355 187.82 302.723 187.82C305.913 187.69 308.224 186.844 309.656 185.281C311.154 183.719 311.707 181.798 311.316 179.52C311.186 178.413 310.47 177.241 309.168 176.004C307.866 174.767 305.359 173.53 301.648 172.293Z" fill="black"/>
<path d="M165.719 205.422H161.812C159.677 205.422 158.609 206.438 158.609 208.469V256.594H149.234V208.625C149.234 206.958 149.052 205.865 148.688 205.344C148.375 204.823 148.115 204.536 147.906 204.484C146.708 204.12 145.849 203.729 145.328 203.312C144.859 202.896 144.625 202.271 144.625 201.438C144.625 199.823 145.406 199.016 146.969 199.016H165.797C171.995 199.016 176.812 200.5 180.25 203.469C183.688 206.438 185.406 210.344 185.406 215.188C185.406 220.396 183.792 224.484 180.562 227.453C177.333 230.422 173.896 231.958 170.25 232.062L186.031 256.594H174.547L159.703 231.281C158.922 229.979 158.766 228.755 159.234 227.609C159.755 226.411 160.615 225.812 161.812 225.812H163.453C167.099 225.812 169.99 224.927 172.125 223.156C174.26 221.385 175.328 218.703 175.328 215.109C175.38 212.036 174.391 209.667 172.359 208C170.328 206.281 168.115 205.422 165.719 205.422ZM196.109 237.922C196.318 241.047 197.464 243.911 199.547 246.516C201.63 249.068 204.339 250.474 207.672 250.734C208.818 250.839 210.042 250.812 211.344 250.656C212.646 250.448 213.922 250.031 215.172 249.406C216.734 248.677 217.906 248.469 218.688 248.781C219.521 249.042 220.146 249.589 220.562 250.422C220.771 251.099 220.745 251.828 220.484 252.609C220.276 253.339 219.807 253.938 219.078 254.406C217.672 255.24 215.771 255.943 213.375 256.516C211.031 257.089 208.401 257.297 205.484 257.141C200.016 256.776 195.406 254.641 191.656 250.734C187.906 246.828 186.031 241.438 186.031 234.562C186.031 228.417 187.724 223.573 191.109 220.031C194.495 216.438 199.104 214.641 204.938 214.641C209.938 214.641 214 216.281 217.125 219.562C220.25 222.844 221.812 227.844 221.812 234.562V237.922H196.109ZM196.109 231.359H212.047C212.047 227.87 211.266 225.292 209.703 223.625C208.193 221.906 206.526 221.047 204.703 221.047C202.62 221.047 200.693 222.01 198.922 223.938C197.203 225.865 196.266 228.339 196.109 231.359ZM256.891 254.172C255.641 255.109 253.844 255.891 251.5 256.516C249.208 257.089 246.448 257.297 243.219 257.141C237.75 256.828 233.141 254.719 229.391 250.812C225.641 246.854 223.766 241.438 223.766 234.562C223.766 228.521 225.458 223.703 228.844 220.109C232.229 216.464 236.891 214.641 242.828 214.641C247.62 214.641 251.448 215.812 254.312 218.156C257.229 220.448 258.792 223.547 259 227.453H249.078C249.078 225.161 248.479 223.521 247.281 222.531C246.083 221.542 244.469 221.047 242.438 221.047C240.354 221.047 238.401 222.219 236.578 224.562C234.755 226.854 233.844 230.188 233.844 234.562C233.844 239.354 234.938 243.182 237.125 246.047C239.312 248.911 242.073 250.474 245.406 250.734C246.552 250.839 247.776 250.812 249.078 250.656C250.38 250.448 251.682 250.031 252.984 249.406C254.339 248.729 255.432 248.495 256.266 248.703C257.151 248.911 257.802 249.38 258.219 250.109C258.479 250.839 258.479 251.594 258.219 252.375C258.01 253.104 257.568 253.703 256.891 254.172ZM274.781 256.594H265.016V225.266C265.016 223.651 264.885 222.557 264.625 221.984C264.365 221.411 264.078 221.047 263.766 220.891C262.828 220.63 262.125 220.318 261.656 219.953C261.188 219.589 260.953 219.042 260.953 218.312C260.953 216.542 262.073 215.656 264.312 215.656H271.422C273.661 215.656 274.781 216.594 274.781 218.469V256.594ZM275.094 203.547C275.094 205.214 274.495 206.646 273.297 207.844C272.151 208.99 270.745 209.562 269.078 209.562C267.411 209.562 266.005 208.99 264.859 207.844C263.714 206.646 263.141 205.214 263.141 203.547C263.141 201.88 263.714 200.448 264.859 199.25C266.005 198 267.411 197.375 269.078 197.375C270.745 197.375 272.151 198 273.297 199.25C274.495 200.448 275.094 201.88 275.094 203.547ZM312.594 254.172C311.344 255.109 309.547 255.891 307.203 256.516C304.911 257.089 302.151 257.297 298.922 257.141C293.453 256.828 288.844 254.719 285.094 250.812C281.344 246.854 279.469 241.438 279.469 234.562C279.469 228.521 281.161 223.703 284.547 220.109C287.932 216.464 292.594 214.641 298.531 214.641C303.323 214.641 307.151 215.812 310.016 218.156C312.932 220.448 314.495 223.547 314.703 227.453H304.781C304.781 225.161 304.182 223.521 302.984 222.531C301.786 221.542 300.172 221.047 298.141 221.047C296.057 221.047 294.104 222.219 292.281 224.562C290.458 226.854 289.547 230.188 289.547 234.562C289.547 239.354 290.641 243.182 292.828 246.047C295.016 248.911 297.776 250.474 301.109 250.734C302.255 250.839 303.479 250.812 304.781 250.656C306.083 250.448 307.385 250.031 308.688 249.406C310.042 248.729 311.135 248.495 311.969 248.703C312.854 248.911 313.505 249.38 313.922 250.109C314.182 250.839 314.182 251.594 313.922 252.375C313.714 253.104 313.271 253.703 312.594 254.172ZM330.484 256.594H320.719V206.828C320.719 205.214 320.589 204.146 320.328 203.625C320.12 203.052 319.807 202.688 319.391 202.531C318.557 202.219 317.88 201.906 317.359 201.594C316.891 201.229 316.656 200.578 316.656 199.641C316.656 198.026 317.776 197.219 320.016 197.219H327.125C329.365 197.219 330.484 198.078 330.484 199.797V256.594ZM359.781 253.859C359.104 254.38 357.906 255.057 356.188 255.891C354.469 256.724 352.047 257.141 348.922 257.141C345.224 257.141 342.177 256.073 339.781 253.938C337.385 251.75 336.188 248.964 336.188 245.578C336.188 240.995 338.219 237.323 342.281 234.562C346.396 231.802 351.37 230.422 357.203 230.422H359.703V228.781C359.703 226.385 359.026 224.51 357.672 223.156C356.318 221.75 354.703 221.047 352.828 221.047C351.161 221.047 349.729 221.49 348.531 222.375C347.385 223.26 346.812 224.979 346.812 227.531H336.656C336.656 223.417 338.141 220.24 341.109 218C344.078 215.76 348.062 214.641 353.062 214.641C358.375 214.641 362.411 215.969 365.172 218.625C367.984 221.229 369.391 224.745 369.391 229.172V256.594H359.781V253.859ZM359.703 237.062C355.484 236.958 352.125 237.609 349.625 239.016C347.125 240.422 345.875 242.349 345.875 244.797C345.875 246.88 346.37 248.312 347.359 249.094C348.349 249.823 349.469 250.188 350.719 250.188C352.906 250.188 354.938 249.38 356.812 247.766C358.74 246.151 359.703 244.198 359.703 241.906V237.062ZM382.594 236.281C382.594 240.396 383.427 243.521 385.094 245.656C386.812 247.74 388.609 248.781 390.484 248.781C392.724 248.781 394.599 247.87 396.109 246.047C397.62 244.172 398.375 241.203 398.375 237.141V232.141C398.375 228.651 397.568 225.995 395.953 224.172C394.391 222.349 392.516 221.438 390.328 221.438C388.349 221.438 386.552 222.583 384.938 224.875C383.375 227.167 382.594 230.969 382.594 236.281ZM398.453 252.688C396.318 254.406 393.609 255.266 390.328 255.266C384.651 255.266 380.328 253.365 377.359 249.562C374.391 245.76 372.906 241.281 372.906 236.125C372.906 229.667 374.391 224.484 377.359 220.578C380.328 216.62 384.417 214.641 389.625 214.641C393.427 214.641 396.448 215.682 398.688 217.766C399.26 216.359 400.615 215.656 402.75 215.656H408.531C410.823 215.656 411.969 216.49 411.969 218.156C411.969 219.042 411.526 219.641 410.641 219.953C409.807 220.266 409.104 220.5 408.531 220.656C408.479 220.708 408.375 220.917 408.219 221.281C408.115 221.594 408.062 222.766 408.062 224.797V254.172C408.062 258.964 406.656 262.792 403.844 265.656C401.031 268.521 396.63 269.953 390.641 269.953C384.911 269.953 380.849 268.859 378.453 266.672C376.057 264.536 374.781 261.49 374.625 257.531H384.312C384.417 259.771 385.016 261.359 386.109 262.297C387.203 263.234 388.844 263.703 391.031 263.703C393.062 263.703 394.807 262.948 396.266 261.438C397.724 259.927 398.453 257.505 398.453 254.172V252.688ZM422.984 237.922C423.193 241.047 424.339 243.911 426.422 246.516C428.505 249.068 431.214 250.474 434.547 250.734C435.693 250.839 436.917 250.812 438.219 250.656C439.521 250.448 440.797 250.031 442.047 249.406C443.609 248.677 444.781 248.469 445.562 248.781C446.396 249.042 447.021 249.589 447.438 250.422C447.646 251.099 447.62 251.828 447.359 252.609C447.151 253.339 446.682 253.938 445.953 254.406C444.547 255.24 442.646 255.943 440.25 256.516C437.906 257.089 435.276 257.297 432.359 257.141C426.891 256.776 422.281 254.641 418.531 250.734C414.781 246.828 412.906 241.438 412.906 234.562C412.906 228.417 414.599 223.573 417.984 220.031C421.37 216.438 425.979 214.641 431.812 214.641C436.812 214.641 440.875 216.281 444 219.562C447.125 222.844 448.688 227.844 448.688 234.562V237.922H422.984ZM422.984 231.359H438.922C438.922 227.87 438.141 225.292 436.578 223.625C435.068 221.906 433.401 221.047 431.578 221.047C429.495 221.047 427.568 222.01 425.797 223.938C424.078 225.865 423.141 228.339 422.984 231.359ZM463.141 256.594H453.531V225.266C453.531 223.651 453.401 222.557 453.141 221.984C452.88 221.411 452.594 221.047 452.281 220.891C451.292 220.682 450.589 220.396 450.172 220.031C449.755 219.667 449.547 219.042 449.547 218.156C449.547 216.49 450.641 215.656 452.828 215.656H459.781C462.021 215.656 463.141 216.594 463.141 218.469V219.094C463.349 218.885 463.557 218.651 463.766 218.391C465.797 216.255 468.557 215.135 472.047 215.031C475.901 215.031 478.766 216.333 480.641 218.938C481.109 219.562 481.526 220.292 481.891 221.125C482.359 220.292 482.932 219.51 483.609 218.781C485.901 216.281 488.766 215.031 492.203 215.031C496.161 215.031 499.052 216.359 500.875 219.016C502.75 221.62 503.688 225.76 503.688 231.438V256.594H494.078V231.672C494.078 228.078 493.74 225.604 493.062 224.25C492.438 222.896 491.552 222.219 490.406 222.219C488.896 222.219 487.125 223.651 485.094 226.516C484.365 227.453 483.818 228.521 483.453 229.719V256.594H473.844V231.672C473.844 228.026 473.505 225.552 472.828 224.25C472.203 222.896 471.37 222.219 470.328 222.219C468.818 222.271 466.995 223.703 464.859 226.516C464.13 227.401 463.557 228.443 463.141 229.641V256.594Z" fill="#83BF4F"/>
</svg>
